<?xml version="1.0" encoding="utf-8"?>
<!-- Generator: Adobe Illustrator 21.1.0, SVG Export Plug-In . SVG Version: 6.00 Build 0)  -->
<svg version="1.1" id="Layer_1" xmlns="http://www.w3.org/2000/svg" xmlns:xlink="http://www.w3.org/1999/xlink" x="0px" y="0px"
	 viewBox="0 0 160 160" style="enable-background:new 0 0 160 160;" xml:space="preserve">
<style type="text/css">
	.st0{fill:url(#SVGID_1_);}
	.st1{fill:#FFFFFF;}
</style>
<linearGradient id="SVGID_1_" gradientUnits="userSpaceOnUse" x1="80.4845" y1="1.5574" x2="80.4845" y2="157.204">
	<stop  offset="0" style="stop-color:#D02112"/>
	<stop  offset="0.5935" style="stop-color:#EB4C27"/>
	<stop  offset="1" style="stop-color:#FF6C36"/>
</linearGradient>
<circle class="st0" cx="80.5" cy="79.4" r="77.8"/>
<g>
	<g>
		<path class="st1" d="M86,80l32.8-32.8c1.6-1.6,1.6-4.3,0-6c-1.6-1.6-4.3-1.6-6,0L80,74L47.2,41.2c-1.6-1.6-4.3-1.6-6,0
			c-1.6,1.6-1.6,4.3,0,6L74,80l-32.8,32.8c-1.6,1.6-1.6,4.3,0,6c1.6,1.6,4.3,1.6,6,0L80,86l32.8,32.8c1.6,1.6,4.3,1.6,6,0
			c1.6-1.6,1.6-4.3,0-6L86,80z"/>
	</g>
</g>
</svg>
