<?xml version="1.0" encoding="utf-8"?>
<!-- Generator: Adobe Illustrator 22.0.1, SVG Export Plug-In . SVG Version: 6.00 Build 0)  -->
<svg version="1.1" id="Layer_1" xmlns="http://www.w3.org/2000/svg" xmlns:xlink="http://www.w3.org/1999/xlink" x="0px" y="0px"
	 viewBox="0 0 313.3 287.3" style="enable-background:new 0 0 313.3 287.3;" xml:space="preserve">
<style type="text/css">
	.st0{fill:#3E3E3E;}
	.st1{fill:#4284ED;}
	.st2{fill:#B3B3B3;}
	.st3{fill:none;stroke:#3E3E3E;stroke-width:12;stroke-linecap:round;stroke-linejoin:round;stroke-miterlimit:10;}
	.st4{fill:none;stroke:#3E3E3E;stroke-width:11.5621;stroke-linecap:round;stroke-linejoin:round;stroke-miterlimit:10;}
</style>
<g>
	<g>
		<path class="st2" d="M223.7,259.3c-1.5,0-3-0.6-4.2-1.7l-36.3-35.3H90.2c-24.9,0-45.2-20.3-45.2-45.2V95.8
			c0-24.9,20.3-45.2,45.2-45.2h140.2c21.7,0,39.3,17.6,39.3,39.3v93c0,21.7-17.6,39.3-39.3,39.3h-0.7v31c0,2.4-1.4,4.6-3.7,5.5
			C225.2,259.2,224.5,259.3,223.7,259.3z M90.2,62.7C71.9,62.7,57,77.5,57,95.8v81.3c0,18.3,14.9,33.2,33.2,33.2h95.5
			c1.6,0,3.1,0.6,4.2,1.7l27.8,27.1v-22.8c0-3.3,2.7-6,6-6h6.7c15.1,0,27.3-12.3,27.3-27.3V90c0-15.1-12.3-27.3-27.3-27.3H90.2z"/>
	</g>
</g>
<g>
	<g>
		<path class="st2" d="M106.5,155.6c-9.7,0-17.6-8.2-17.6-18.4s7.9-18.4,17.6-18.4s17.6,8.2,17.6,18.4S116.3,155.6,106.5,155.6z
			 M106.5,130.9c-3.1,0-5.6,2.9-5.6,6.4s2.5,6.4,5.6,6.4s5.6-2.9,5.6-6.4S109.6,130.9,106.5,130.9z"/>
	</g>
</g>
<g>
	<g>
		<path class="st2" d="M158.5,155.6c-9.7,0-17.6-8.2-17.6-18.4s7.9-18.4,17.6-18.4s17.6,8.2,17.6,18.4S168.3,155.6,158.5,155.6z
			 M158.5,130.9c-3.1,0-5.6,2.9-5.6,6.4s2.5,6.4,5.6,6.4s5.6-2.9,5.6-6.4S161.6,130.9,158.5,130.9z"/>
	</g>
</g>
<g>
	<g>
		<path class="st2" d="M210.5,155.6c-9.7,0-17.6-8.2-17.6-18.4s7.9-18.4,17.6-18.4s17.6,8.2,17.6,18.4S220.3,155.6,210.5,155.6z
			 M210.5,130.9c-3.1,0-5.6,2.9-5.6,6.4s2.5,6.4,5.6,6.4s5.6-2.9,5.6-6.4S213.6,130.9,210.5,130.9z"/>
	</g>
</g>
</svg>
