<?xml version="1.0" encoding="utf-8"?>
<!-- Generator: Adobe Illustrator 22.0.1, SVG Export Plug-In . SVG Version: 6.00 Build 0)  -->
<svg version="1.1" id="Layer_1" xmlns="http://www.w3.org/2000/svg" xmlns:xlink="http://www.w3.org/1999/xlink" x="0px" y="0px"
	 viewBox="0 0 313.3 287.3" style="enable-background:new 0 0 313.3 287.3;" xml:space="preserve">
<style type="text/css">
	.st0{fill:#3E3E3E;}
	.st1{fill:#4284ED;}
	.st2{fill:#B3B3B3;}
	.st3{fill:none;stroke:#3E3E3E;stroke-width:12;stroke-linecap:round;stroke-linejoin:round;stroke-miterlimit:10;}
	.st4{fill:none;stroke:#3E3E3E;stroke-width:11.5621;stroke-linecap:round;stroke-linejoin:round;stroke-miterlimit:10;}
</style>
<g>
	<g>
		<path class="st1" d="M175.3,260.1h-30.4c-3.3,0-6-2.7-6-6v-15.6c-27-4.4-49.9-20.9-59-43.1c-1.2-2.9,0.1-6.3,2.9-7.7l28.8-14
			c1.5-0.7,3.1-0.8,4.6-0.2c1.5,0.5,2.8,1.7,3.4,3.1c5.3,11.6,22.3,20.7,38.7,20.7c24.8,0,29.5-5,29.5-14.2
			c0-11.6-21.7-14.6-31.1-15.3c-16.7-1.6-33.8-4.1-47-11.6c-15.3-8.7-23-23.2-22.9-43c0.1-15.4,6.5-28.5,18.6-37.7
			c9-6.9,20.7-11.5,34.2-13.3v-13c0-3.3,2.7-6,6-6h29.3c3.3,0,6,2.7,6,6v13.2c21.8,3.8,37.3,15.3,46.2,34.1c0.7,1.4,0.8,3.1,0.2,4.6
			c-0.5,1.5-1.7,2.7-3.1,3.4l-27.3,12.6c-3,1.4-6.5,0.1-7.9-2.9c-3.2-6.8-15.9-14.1-30.7-14.1c-12,0-25.1,4.1-25.3,13.1
			c0,6.6,8,9.9,27.3,11.5c0.1,0,0.1,0,0.2,0c20.3,2.2,74.1,8,74.1,58.3c0,30.6-18.9,50.1-53.5,55.2v15.8
			C181.3,257.4,178.6,260.1,175.3,260.1z M150.9,248.1h18.4V233c0-3.1,2.3-5.7,5.4-6c31.9-3.3,48.1-18,48.1-43.9
			c0-27.7-18.9-41.6-63.3-46.4c-12.5-1-38.3-3.1-38.3-23.5c0,0,0-0.1,0-0.1c0.3-14.9,15.2-25,37.3-25c15.4,0,30.7,6.6,38.3,15.9
			l16.8-7.8c-8.2-13.2-21-20.7-39.2-22.8c-3-0.3-5.3-2.9-5.3-6V55.1h-17.3v12.4c0,3.1-2.4,5.7-5.5,6c-11,0.9-47,6.4-47.3,39.8
			c-0.2,30.9,21.5,39,58.9,42.6c36.6,2.9,42,18.3,42,27.3c0,26.2-28,26.2-41.5,26.2c-18.6,0-37.4-9.3-46.5-22.4l-18.5,8.9
			c9.4,17,29.2,29.1,52.1,31.4c3.1,0.3,5.4,2.9,5.4,6V248.1z"/>
	</g>
</g>
</svg>
