<?xml version="1.0" encoding="utf-8"?>
<!-- Generator: Adobe Illustrator 22.0.1, SVG Export Plug-In . SVG Version: 6.00 Build 0)  -->
<svg version="1.1" id="Layer_1" xmlns="http://www.w3.org/2000/svg" xmlns:xlink="http://www.w3.org/1999/xlink" x="0px" y="0px"
	 viewBox="0 0 313.3 287.3" style="enable-background:new 0 0 313.3 287.3;" xml:space="preserve">
<style type="text/css">
	.st0{fill:#3E3E3E;}
	.st1{fill:#4284ED;}
	.st2{fill:#B3B3B3;}
	.st3{fill:none;stroke:#3E3E3E;stroke-width:12;stroke-linecap:round;stroke-linejoin:round;stroke-miterlimit:10;}
	.st4{fill:none;stroke:#3E3E3E;stroke-width:11.5621;stroke-linecap:round;stroke-linejoin:round;stroke-miterlimit:10;}
</style>
<g>
	<g>
		<g>
			<path class="st1" d="M157.1,256c-1.9,0-3.7-0.9-4.8-2.4c-2.6-3.4-5-6.9-7.4-10.3c-5.4-7.5-10.4-14.6-16.2-21.2
				c-8.6-9.8-18-19.2-27.1-28.4c-3.3-3.3-6.6-6.6-9.8-9.9c-13.7-14-22.1-29.1-25.5-46c-5.6-27.5,1.6-53,21.4-75.8
				c9.5-11,20.9-19,33.9-24c2.3-0.9,22.9-8.4,45.1-6.4c19.8,1.8,37.5,9.8,52.4,23.8c18.6,17.4,28.6,38.1,29.7,61.5l0,0
				c1,22.9-6.4,43.4-22.3,61c-6.1,6.8-12.7,13.3-19,19.5c-3.3,3.2-6.6,6.6-9.9,9.9c-15.1,15.4-26.6,30.3-35.3,45.6
				c-1,1.8-2.8,2.9-4.8,3C157.4,256,157.3,256,157.1,256z M159,43.4c-13.7,0-26.9,3.5-33.2,5.9c-11.1,4.2-20.9,11.2-29.1,20.6
				C79.3,90,73.2,111.4,78.1,135.5c3,14.6,10.3,27.7,22.3,40c3.2,3.3,6.5,6.6,9.7,9.9c9.2,9.3,18.7,18.9,27.6,28.9
				c6.2,7,11.7,14.7,17,22.1c0.7,0.9,1.3,1.9,2,2.8c8.5-13.4,19.2-26.6,32.4-40.2c3.3-3.4,6.7-6.8,10-10
				c6.2-6.2,12.6-12.5,18.5-19.1c13.6-15.1,20.1-32.7,19.2-52.4l0,0c-0.9-20.2-9.6-38.1-25.9-53.3c-13-12.1-28.2-19-45.3-20.6
				C163.4,43.4,161.2,43.4,159,43.4z M156.7,170.6c-25.9,0-46.9-21.1-46.9-46.9s21.1-46.9,46.9-46.9s46.9,21.1,46.9,46.9
				S182.5,170.6,156.7,170.6z M156.7,88.8c-19.3,0-34.9,15.7-34.9,34.9s15.7,34.9,34.9,34.9s34.9-15.7,34.9-34.9
				S175.9,88.8,156.7,88.8z"/>
		</g>
	</g>
</g>
</svg>
