<?xml version="1.0" encoding="utf-8"?>
<!-- Generator: Adobe Illustrator 22.0.1, SVG Export Plug-In . SVG Version: 6.00 Build 0)  -->
<svg version="1.1" id="Layer_1" xmlns="http://www.w3.org/2000/svg" xmlns:xlink="http://www.w3.org/1999/xlink" x="0px" y="0px"
	 viewBox="0 0 313.3 287.3" style="enable-background:new 0 0 313.3 287.3;" xml:space="preserve">
<style type="text/css">
	.st0{fill:#3E3E3E;}
	.st1{fill:#4284ED;}
	.st2{fill:#B3B3B3;}
	.st3{fill:none;stroke:#3E3E3E;stroke-width:12;stroke-linecap:round;stroke-linejoin:round;stroke-miterlimit:10;}
	.st4{fill:none;stroke:#3E3E3E;stroke-width:11.5621;stroke-linecap:round;stroke-linejoin:round;stroke-miterlimit:10;}
</style>
<g>
	<g>
		<g>
			<g>
				<path class="st2" d="M255.3,102.7H58c-11.6,0-21-9.4-21-21s9.4-21,21-21h197.3c11.6,0,21,9.4,21,21S266.9,102.7,255.3,102.7z
					 M58,72.7c-5,0-9,4-9,9s4,9,9,9h197.3c5,0,9-4,9-9s-4-9-9-9H58z"/>
			</g>
		</g>
	</g>
	<g>
		<g>
			<g>
				<path class="st2" d="M255.3,103.7H58c-11.6,0-21-9.4-21-21s9.4-21,21-21h197.3c11.6,0,21,9.4,21,21S266.9,103.7,255.3,103.7z
					 M58,73.7c-5,0-9,4-9,9s4,9,9,9h197.3c5,0,9-4,9-9s-4-9-9-9H58z"/>
			</g>
		</g>
	</g>
	<g>
		<g>
			<g>
				<path class="st2" d="M255.3,164.7H58c-11.6,0-21-9.4-21-21s9.4-21,21-21h197.3c11.6,0,21,9.4,21,21S266.9,164.7,255.3,164.7z
					 M58,134.7c-5,0-9,4-9,9s4,9,9,9h197.3c5,0,9-4,9-9s-4-9-9-9H58z"/>
			</g>
		</g>
	</g>
	<g>
		<g>
			<g>
				<path class="st2" d="M255.3,226.7H58c-11.6,0-21-9.4-21-21s9.4-21,21-21h197.3c11.6,0,21,9.4,21,21S266.9,226.7,255.3,226.7z
					 M58,196.7c-5,0-9,4-9,9s4,9,9,9h197.3c5,0,9-4,9-9s-4-9-9-9H58z"/>
			</g>
		</g>
	</g>
</g>
</svg>
