<?xml version="1.0" encoding="utf-8"?>
<!-- Generator: Adobe Illustrator 22.0.1, SVG Export Plug-In . SVG Version: 6.00 Build 0)  -->
<svg version="1.1" id="Layer_1" xmlns="http://www.w3.org/2000/svg" xmlns:xlink="http://www.w3.org/1999/xlink" x="0px" y="0px"
	 viewBox="0 0 313.3 287.3" style="enable-background:new 0 0 313.3 287.3;" xml:space="preserve">
<style type="text/css">
	.st0{fill:#3E3E3E;}
	.st1{fill:#4284ED;}
	.st2{fill:#B3B3B3;}
	.st3{fill:none;stroke:#3E3E3E;stroke-width:12;stroke-linecap:round;stroke-linejoin:round;stroke-miterlimit:10;}
	.st4{fill:none;stroke:#3E3E3E;stroke-width:11.5621;stroke-linecap:round;stroke-linejoin:round;stroke-miterlimit:10;}
</style>
<g>
	<g>
		<g>
			<path class="st1" d="M149.3,264.1c-62.2,0-112.8-50.6-112.8-112.8S87.1,38.4,149.3,38.4s112.8,50.6,112.8,112.8
				S211.5,264.1,149.3,264.1z M149.3,50.4c-55.6,0-100.8,45.2-100.8,100.8s45.2,100.8,100.8,100.8s100.8-45.2,100.8-100.8
				S204.9,50.4,149.3,50.4z"/>
		</g>
	</g>
	<g>
		<g>
			<path class="st1" d="M142.7,237.3c-14.7,0-29.4-3.5-42.3-10.3c-1.4-0.7-2.5-2-2.9-3.5c-0.4-1.5-0.2-3.2,0.6-4.5l41.8-70.4V68.7
				c0-1.6,0.6-3.1,1.7-4.1c1.1-1.1,2.6-1.7,4.2-1.6c23.6,0.6,45.5,9.7,61.7,25.6c16.4,16.1,25.4,37.6,25.4,60.7
				C233,197.8,192.5,237.3,142.7,237.3z M111.3,219.4c9.9,4.2,20.6,6.4,31.4,6.4c43.4,0,78.7-34.3,78.7-76.5
				c0-38.9-30.3-70.6-70-74.4v75.3c0,1-0.3,2.1-0.8,2.9L111.3,219.4z"/>
		</g>
	</g>
</g>
</svg>
